<svg width="16" height="16" viewBox="0 0 16 16" fill="none" xmlns="http://www.w3.org/2000/svg">
<rect width="16" height="16" fill="white"/>
<g filter="url(#filter0_d_100_2)">
<path d="M5.48108 10.316L8.43549 8.375L5.48108 6.43403V10.316Z" stroke="white" stroke-width="0.125" shape-rendering="crispEdges"/>
</g>
<path d="M11.0211 10.066L8.06671 8.125L11.0211 6.18403V10.066Z" stroke="white" stroke-width="0.125"/>
<path d="M5.44841 9.18751L7.5641 7.82168" stroke="white" stroke-width="0.125"/>
<path d="M3.27193 7.65682L1.73966 7.99539C1.69402 7.9653 1.65239 7.93085 1.61477 7.89206C1.44704 7.71523 1.36318 7.46345 1.36318 7.13671V6.90607H2.00136V7.18284C2.00136 7.44423 2.11795 7.57493 2.35113 7.57493C2.46567 7.57493 2.55158 7.54417 2.60885 7.48267C2.67021 7.41732 2.7009 7.31353 2.7009 7.17131C2.7009 7.00217 2.65999 6.85418 2.57817 6.72732C2.49635 6.59663 2.34499 6.44094 2.12408 6.26028C1.8459 6.02964 1.65159 5.82206 1.54113 5.63755C1.43068 5.44919 1.37545 5.23777 1.37545 5.00329C1.37545 4.68423 1.46136 4.43822 1.63318 4.26524C1.80499 4.08841 2.05454 4 2.38181 4C2.70499 4 2.94839 4.08841 3.11203 4.26524C3.27975 4.43822 3.36362 4.68808 3.36362 5.01482V5.18203H2.72544V4.97446C2.72544 4.83607 2.6968 4.73613 2.63953 4.67462C2.58226 4.60928 2.4984 4.5766 2.38794 4.5766C2.16295 4.5766 2.05045 4.70538 2.05045 4.96292C2.05045 5.109 2.09136 5.24546 2.17317 5.37231C2.25908 5.49916 2.41249 5.65292 2.6334 5.83359C2.91567 6.06423 3.10998 6.27373 3.21634 6.46209C3.32271 6.65044 3.37589 6.87147 3.37589 7.12518C3.37589 7.33268 3.34123 7.5099 3.27193 7.65682Z" fill="black"/>
<path d="M3.76291 7.87992V8.09387H5.6038V7.51727H5.40417L3.76291 7.87992Z" fill="black"/>
<path d="M4.4379 7.39919L3.76291 7.54834V4.05766H5.6038V4.63426H4.4379V5.70097H5.36448V6.27757H4.4379V7.39919Z" fill="black"/>
<path d="M5.99211 7.38736V8.09387H7.77777V7.51727H6.6671V7.23821L5.99211 7.38736Z" fill="black"/>
<path d="M6.6671 6.90663L5.99211 7.05577V4.05766H6.6671V6.90663Z" fill="black"/>
<path d="M8.10146 6.92128V8.09387H9.94236V7.51727H8.77646V6.77213L8.10146 6.92128Z" fill="black"/>
<path d="M8.77646 6.44055L8.10146 6.58969V4.05766H9.94236V4.63426H8.77646V5.70097H9.70304V6.23581L9.51403 6.27757H8.77646V6.44055Z" fill="black"/>
<path d="M10.2877 6.4382V7.15977C10.2877 7.47498 10.3716 7.71908 10.5393 7.89206C10.7111 8.06504 10.9586 8.15153 11.2818 8.15153C11.605 8.15153 11.8504 8.06504 12.0182 7.89206C12.19 7.71908 12.2759 7.47498 12.2759 7.15977V6.58894H11.6377V7.2059C11.6377 7.45192 11.5252 7.57493 11.3002 7.57493C11.0752 7.57493 10.9627 7.45192 10.9627 7.2059V6.28906L10.2877 6.4382Z" fill="black"/>
<path d="M10.9627 5.95748L10.2877 6.10662V4.99175C10.2877 4.67655 10.3716 4.43245 10.5393 4.25947C10.7111 4.08649 10.9586 4 11.2818 4C11.605 4 11.8504 4.08649 12.0182 4.25947C12.19 4.43245 12.2759 4.67655 12.2759 4.99175V5.41844H11.6377V4.95139C11.6377 4.70153 11.5252 4.5766 11.3002 4.5766C11.0752 4.5766 10.9627 4.70153 10.9627 4.95139V5.95748Z" fill="black"/>
<path d="M13.2074 5.79306V8.09387H13.8824V5.64392L13.2074 5.79306Z" fill="black"/>
<path d="M13.8824 5.31234L13.2074 5.46148V4.63426H12.5018V4.05766H14.5881V4.63426H13.8824V5.31234Z" fill="black"/>
<path d="M0.5 8.96379H1.4634L1.89294 11.8526H1.90521L2.33475 8.96379H3.29815V13H2.65998V9.94401H2.64771L2.1568 13H1.59226L1.10136 9.94401H1.08909V13H0.5V8.96379Z" fill="black"/>
<path d="M3.6055 8.96379L4.42162 11.2817V13H5.09662V11.2817L5.91275 8.96379H5.25616L4.79594 10.4457H4.78367L4.32344 8.96379H3.6055Z" fill="black"/>
<path d="M7.1996 8.96379H7.87459V10.6071H8.59867V8.96379H9.27367V13H8.59867V11.1837H7.87459V13H7.1996V8.96379Z" fill="black"/>
<path fill-rule="evenodd" clip-rule="evenodd" d="M11.2123 8.96379H10.2979L9.59841 13H10.2243L10.347 12.2101H11.1141V12.1985L11.2368 13H11.9118L11.2123 8.96379ZM10.7336 9.66725L11.0343 11.6623H10.4268L10.7214 9.66725H10.7336Z" fill="black"/>
<path d="M12.2393 8.96379H12.9143V13H12.2393V8.96379Z" fill="black"/>
<path fill-rule="evenodd" clip-rule="evenodd" d="M14.42 8.96379H13.4198V13H14.0948V11.2702H14.328C14.4834 11.2702 14.5918 11.3067 14.6532 11.3797C14.7186 11.4528 14.7514 11.5816 14.7514 11.7661V12.5041C14.7514 12.654 14.7555 12.7578 14.7636 12.8155C14.7718 12.8731 14.7882 12.9347 14.8127 13H15.5C15.4673 12.9308 15.4468 12.8616 15.4386 12.7924C15.4305 12.7194 15.4264 12.6252 15.4264 12.5099V11.8007C15.4264 11.5623 15.3916 11.3721 15.322 11.2298C15.2566 11.0876 15.142 10.9934 14.9784 10.9473V10.9358C15.273 10.8243 15.4202 10.5591 15.4202 10.1401V9.89212C15.4202 9.57691 15.3405 9.34435 15.1809 9.19443C15.0214 9.04067 14.7677 8.96379 14.42 8.96379ZM14.6409 10.5956C14.5755 10.6609 14.4752 10.6936 14.3402 10.6936H14.0948V9.54039H14.4016C14.5202 9.54039 14.6061 9.57307 14.6593 9.63841C14.7166 9.70376 14.7452 9.80947 14.7452 9.95555V10.2669C14.7452 10.4207 14.7105 10.5302 14.6409 10.5956Z" fill="black"/>
<defs>
<filter id="filter0_d_100_2" x="4.9187" y="6.31812" width="4.13062" height="5.11377" filterUnits="userSpaceOnUse" color-interpolation-filters="sRGB">
<feFlood flood-opacity="0" result="BackgroundImageFix"/>
<feColorMatrix in="SourceAlpha" type="matrix" values="0 0 0 0 0 0 0 0 0 0 0 0 0 0 0 0 0 0 127 0" result="hardAlpha"/>
<feOffset dy="0.5"/>
<feGaussianBlur stdDeviation="0.25"/>
<feComposite in2="hardAlpha" operator="out"/>
<feColorMatrix type="matrix" values="0 0 0 0 0 0 0 0 0 0 0 0 0 0 0 0 0 0 0.25 0"/>
<feBlend mode="normal" in2="BackgroundImageFix" result="effect1_dropShadow_100_2"/>
<feBlend mode="normal" in="SourceGraphic" in2="effect1_dropShadow_100_2" result="shape"/>
</filter>
</defs>
</svg>
