<svg width="1200" height="628" viewBox="0 0 1200 628" fill="none" xmlns="http://www.w3.org/2000/svg">
<g clip-path="url(#clip0_100_10)">
<rect width="1200" height="628" fill="white"/>
<rect y="310" width="1200" height="321" fill="black"/>
<g filter="url(#filter0_d_100_10)">
<path d="M5.48108 10.316L8.43549 8.375L5.48108 6.43403V10.316Z" stroke="white" stroke-width="0.125" shape-rendering="crispEdges"/>
</g>
<path d="M11.0211 10.066L8.06671 8.125L11.0211 6.18403V10.066Z" stroke="white" stroke-width="0.125"/>
<path d="M5.44841 9.18751L7.5641 7.82168" stroke="white" stroke-width="0.125"/>
<path d="M490.939 146.795L455.595 155.109C454.542 154.37 453.582 153.524 452.714 152.572C448.845 148.23 446.911 142.047 446.911 134.024V128.36H461.631V135.156C461.631 141.575 464.321 144.784 469.699 144.784C472.341 144.784 474.323 144.029 475.644 142.519C477.06 140.914 477.767 138.366 477.767 134.873C477.767 130.72 476.824 127.086 474.936 123.971C473.049 120.762 469.558 116.939 464.462 112.502C458.046 106.839 453.563 101.742 451.015 97.2109C448.468 92.5857 447.194 87.3941 447.194 81.6362C447.194 73.8017 449.175 67.7607 453.139 63.513C457.102 59.171 462.858 57 470.407 57C477.862 57 483.476 59.171 487.251 63.513C491.12 67.7607 493.054 73.8961 493.054 81.9194V86.0255H478.333V80.9283C478.333 77.5302 477.673 75.076 476.352 73.5657C475.031 71.9611 473.096 71.1588 470.549 71.1588C465.359 71.1588 462.764 74.3209 462.764 80.6451C462.764 84.232 463.707 87.5829 465.595 90.6978C467.576 93.8128 471.115 97.5885 476.21 102.025C482.721 107.688 487.204 112.833 489.657 117.458C492.11 122.083 493.337 127.511 493.337 133.74C493.337 138.836 492.538 143.188 490.939 146.795Z" fill="black"/>
<path d="M502.264 152.274V157.527H544.728V143.368H540.123L502.264 152.274Z" fill="black"/>
<path d="M517.834 140.469L502.264 144.131V58.4159H544.728V72.5746H517.834V98.7683H539.207V112.927H517.834V140.469Z" fill="black"/>
<path d="M553.685 140.178V157.527H594.874V143.368H569.255V136.516L553.685 140.178Z" fill="black"/>
<path d="M569.255 128.374L553.685 132.036V58.4159H569.255V128.374Z" fill="black"/>
<path d="M602.34 128.734V157.527H644.804V143.368H617.91V125.071L602.34 128.734Z" fill="black"/>
<path d="M617.91 116.929L602.34 120.591V58.4159H644.804V72.5746H617.91V98.7683H639.283V111.902L634.924 112.927H617.91V116.929Z" fill="black"/>
<path d="M652.77 116.871V134.59C652.77 142.33 654.704 148.324 658.573 152.572C662.536 156.819 668.245 158.943 675.7 158.943C683.155 158.943 688.816 156.819 692.685 152.572C696.649 148.324 698.63 142.33 698.63 134.59V120.573H683.91V135.723C683.91 141.764 681.315 144.784 676.125 144.784C670.935 144.784 668.34 141.764 668.34 135.723V113.209L652.77 116.871Z" fill="black"/>
<path d="M668.34 105.067L652.77 108.729V81.3531C652.77 73.6129 654.704 67.6191 658.573 63.3714C662.536 59.1238 668.245 57 675.7 57C683.155 57 688.816 59.1238 692.685 63.3714C696.649 67.6191 698.63 73.6129 698.63 81.3531V91.8306H683.91V80.362C683.91 74.2265 681.315 71.1588 676.125 71.1588C670.935 71.1588 668.34 74.2265 668.34 80.362V105.067Z" fill="black"/>
<path d="M720.118 101.03V157.527H735.688V97.3673L720.118 101.03Z" fill="black"/>
<path d="M735.688 89.2251L720.118 92.8875V72.5746H703.841V58.4159H751.966V72.5746H735.688V89.2251Z" fill="black"/>
<path d="M427 178.889H449.222L459.131 249.824H459.414L469.322 178.889H491.544V278H476.824V202.959H476.54L465.217 278H452.195L440.871 202.959H440.588V278H427V178.889Z" fill="black"/>
<path d="M498.633 178.889L517.459 235.807V278H533.029V235.807L551.854 178.889H536.709L526.093 215.277H525.81L515.194 178.889H498.633Z" fill="black"/>
<path d="M581.537 178.889H597.107V219.241H613.809V178.889H629.379V278H613.809V233.4H597.107V278H581.537V178.889Z" fill="black"/>
<path fill-rule="evenodd" clip-rule="evenodd" d="M674.096 178.889H653.006L636.87 278H651.308L654.138 258.602H671.831V258.319L674.662 278H690.232L674.096 178.889ZM663.056 196.162L669.991 245.152H655.978L662.773 196.162H663.056Z" fill="black"/>
<path d="M697.786 178.889H713.356V278H697.786V178.889Z" fill="black"/>
<path fill-rule="evenodd" clip-rule="evenodd" d="M748.088 178.889H725.017V278H740.586V235.524H745.965C749.551 235.524 752.051 236.42 753.467 238.214C754.977 240.007 755.732 243.169 755.732 247.7V265.823C755.732 269.505 755.826 272.053 756.015 273.469C756.203 274.885 756.581 276.395 757.147 278H773C772.245 276.301 771.773 274.602 771.585 272.903C771.396 271.109 771.301 268.797 771.301 265.965V248.55C771.301 242.697 770.499 238.025 768.895 234.533C767.385 231.04 764.743 228.728 760.969 227.595V227.312C767.763 224.574 771.16 218.061 771.16 207.773V201.684C771.16 193.944 769.32 188.233 765.64 184.552C761.96 180.777 756.109 178.889 748.088 178.889ZM753.184 218.958C751.674 220.563 749.362 221.365 746.248 221.365H740.586V193.047H747.664C750.4 193.047 752.382 193.85 753.608 195.454C754.93 197.059 755.59 199.655 755.59 203.242V210.887C755.59 214.663 754.788 217.353 753.184 218.958Z" fill="black"/>
<path d="M412.703 375.062V395.945H410.852V375.062H412.703ZM396.297 383.945C396.309 379.516 398.512 376.691 401.617 376.68C404.711 376.691 406.949 379.516 406.938 383.945C406.949 388.387 404.711 391.199 401.617 391.188C398.512 391.199 396.309 388.387 396.297 383.945ZM398.078 383.945C398.078 387.332 399.531 389.559 401.617 389.547C403.715 389.559 405.156 387.332 405.156 383.945C405.156 380.559 403.715 378.332 401.617 378.32C399.531 378.332 398.078 380.559 398.078 383.945ZM433.961 375.086V390.742H432.203V375.086H433.961ZM416.359 386.172C419.066 384.988 420.66 382.328 420.648 379.797V378.578H416.758V377.055H426.109V378.578H422.43V379.797C422.43 382.094 423.953 384.566 426.602 385.656L425.641 387.109C423.684 386.277 422.312 384.719 421.586 382.902C420.859 384.953 419.418 386.688 417.344 387.602L416.359 386.172ZM420.297 395.453V388.82H422.125V393.906H434.594V395.453H420.297ZM424.938 382.398V380.875H428.125V375.531H429.906V390.203H428.125V382.398H424.938ZM453.648 377.055V378.602H445.938V389.219C449.699 389.23 452.172 389.102 455.055 388.539L455.289 390.062C452.219 390.648 449.676 390.789 445.68 390.789H444.086V377.055H453.648ZM452.406 384.18V382.656H458.477V375.062H460.328V395.945H458.477V384.18H452.406ZM480.953 375.062V395.945H479.102V375.062H480.953ZM464.547 383.945C464.559 379.516 466.762 376.691 469.867 376.68C472.961 376.691 475.199 379.516 475.188 383.945C475.199 388.387 472.961 391.199 469.867 391.188C466.762 391.199 464.559 388.387 464.547 383.945ZM466.328 383.945C466.328 387.332 467.781 389.559 469.867 389.547C471.965 389.559 473.406 387.332 473.406 383.945C473.406 380.559 471.965 378.332 469.867 378.32C467.781 378.332 466.328 380.559 466.328 383.945ZM491.477 378.438C491.477 381.273 493.633 383.875 496.656 384.906L495.648 386.359C493.352 385.516 491.535 383.793 490.621 381.613C489.73 384.086 487.867 385.996 485.43 386.945L484.445 385.469C487.562 384.309 489.66 381.52 489.672 378.297V376.141H491.477V378.438ZM487.211 392.055C487.223 389.676 489.836 388.281 494.125 388.281C498.402 388.281 500.992 389.676 500.992 392.055C500.992 394.48 498.402 395.852 494.125 395.852C489.836 395.852 487.223 394.48 487.211 392.055ZM489.062 392.055C489.039 393.531 490.984 394.387 494.125 394.398C497.277 394.387 499.199 393.531 499.211 392.055C499.199 390.637 497.277 389.758 494.125 389.758C490.984 389.758 489.039 390.637 489.062 392.055ZM498.977 387.742V375.062H500.805V380.5H503.945V382.047H500.805V387.742H498.977ZM521.617 377.148V382.703H526.727V375.062H528.555V395.945H526.727V384.227H521.617V390.625H512.125V377.148H521.617ZM513.953 389.148H519.836V378.602H513.953V389.148ZM549.227 375.062V395.945H547.398V375.062H549.227ZM533.195 378.531V377.008H542.898V384.414H535.117V389.336C538.574 389.348 541.656 389.184 545.383 388.586L545.57 390.133C541.738 390.73 538.574 390.883 534.977 390.883H533.242V382.914H541.047V378.531H533.195ZM569.172 378.133C569.184 381.707 573.262 384.883 576.883 385.562L576.039 387.109C572.887 386.383 569.582 384.145 568.234 381.086C566.875 384.145 563.582 386.371 560.43 387.109L559.586 385.562C563.195 384.871 567.238 381.719 567.25 378.133V376.539H569.172V378.133ZM558.789 393.062V391.539H577.867V393.062H558.789ZM590.219 376.961V378.508H582.297V382.82H589.75V384.32H582.297V389.359C586.059 389.359 588.695 389.219 591.812 388.68L592.023 390.203C588.766 390.754 586.035 390.871 582.086 390.883H580.445V376.961H590.219ZM593.828 395.898V375.062H595.656V383.453H599.148V385.023H595.656V395.898H593.828ZM606.18 375.836C609.297 375.848 611.559 377.746 611.57 380.453C611.559 383.172 609.297 385.047 606.18 385.047C603.027 385.047 600.754 383.172 600.766 380.453C600.754 377.746 603.027 375.848 606.18 375.836ZM602.57 380.453C602.547 382.281 604.082 383.547 606.18 383.547C608.242 383.547 609.789 382.281 609.789 380.453C609.789 378.648 608.242 377.371 606.18 377.383C604.082 377.371 602.547 378.648 602.57 380.453ZM603.93 388.258V386.781H617.477V391.797H605.781V394.141H618.227V395.617H603.977V390.414H615.648V388.258H603.93ZM615.648 385.773V375.062H617.477V385.773H615.648ZM640.094 391.773V393.32H621.016V391.773H629.594V387.836H623.406V381.414H635.875V378.133H623.359V376.609H637.68V382.914H625.234V386.312H638.172V387.836H631.398V391.773H640.094ZM664.492 377.172V379.258C664.469 381.812 664.469 384.672 663.719 388.867L661.844 388.656C662.629 384.672 662.629 381.754 662.641 379.258V378.695H649.797V377.172H664.492ZM647.781 392.945V391.422H655.234V383.969H657.039V391.422H666.766V392.945H647.781ZM679.398 376.891V386.547H669.625V376.891H679.398ZM671.43 385.07H677.594V378.414H671.43V385.07ZM672.273 395.195V388.609H674.102V393.672H686.383V395.195H672.273ZM683.898 390.062V375.086H685.727V390.062H683.898ZM705.391 375.062V383.664H708.883V385.188H705.391V395.898H703.562V375.062H705.391ZM689.148 379.938V378.414H694.516V375.32H696.344V378.414H701.547V379.938H689.148ZM690.344 386.453C690.332 383.641 692.488 381.672 695.453 381.672C698.395 381.672 700.539 383.641 700.562 386.453C700.539 389.277 698.395 391.234 695.453 391.234C692.488 391.234 690.332 389.277 690.344 386.453ZM692.102 386.453C692.09 388.352 693.508 389.688 695.453 389.664C697.375 389.688 698.781 388.352 698.805 386.453C698.781 384.566 697.375 383.207 695.453 383.219C693.508 383.207 692.09 384.566 692.102 386.453ZM717.461 381.461C717.473 385 720.039 388.598 723.109 389.922L722.078 391.375C719.641 390.273 717.543 387.871 716.57 384.988C715.598 388.047 713.488 390.695 711.109 391.891L710.008 390.438C712.996 389.008 715.598 385.07 715.609 381.461V378.742H710.688V377.219H722.43V378.742H717.461V381.461ZM725.336 395.898V375.062H727.188V395.898H725.336ZM747.25 377.172V390.602H737.641V377.172H747.25ZM739.422 389.102H745.422V378.648H739.422V389.102ZM751.07 395.898V375.062H752.898V383.383H756.391V384.977H752.898V395.898H751.07ZM763.703 380.992C763.703 384.309 765.32 387.883 768.086 389.523L767.031 390.953C765.016 389.734 763.574 387.508 762.848 384.965C762.086 387.742 760.539 390.133 758.453 391.398L757.281 390.016C760.164 388.328 761.922 384.637 761.922 381.062V377.031H763.703V380.992ZM765.789 384.109V382.539H769.328V375.508H771.062V394.844H769.328V384.109H765.789ZM773.594 395.898V375.062H775.375V395.898H773.594ZM797.336 391.68V393.227H778.258V391.68H782.992V386.066C781.211 385.141 780.133 383.641 780.133 381.742C780.133 378.52 783.297 376.398 787.75 376.375C792.203 376.398 795.367 378.52 795.367 381.742C795.367 383.605 794.324 385.082 792.602 386.008V391.68H797.336ZM781.914 381.742C781.902 384.074 784.328 385.633 787.75 385.633C791.137 385.633 793.586 384.074 793.586 381.742C793.586 379.41 791.137 377.875 787.75 377.898C784.328 377.875 781.902 379.41 781.914 381.742ZM784.797 391.68H790.75V386.723C789.848 386.957 788.84 387.086 787.75 387.086C786.684 387.086 785.688 386.969 784.797 386.734V391.68ZM802.375 377.031L802.211 389.219H800.242L800.078 377.031H802.375ZM799.727 392.617C799.703 391.797 800.406 391.117 801.227 391.117C802.059 391.117 802.738 391.797 802.727 392.617C802.738 393.449 802.059 394.129 801.227 394.141C800.406 394.129 799.703 393.449 799.727 392.617ZM407.664 424.383V425.93H404.289V436.898H402.461V416.062H404.289V424.383H407.664ZM389.031 431.602V418.125H390.859V430.055C393.906 430.055 397.012 429.82 400.445 429.094L400.68 430.664C397.082 431.391 393.848 431.602 390.695 431.602H389.031ZM426.766 416.062V436.898H424.984V416.062H426.766ZM409.164 425.062C409.176 420.633 410.934 417.832 413.641 417.82C416.172 417.832 417.883 420.27 418.117 424.195H420.812V416.508H422.57V435.844H420.812V425.719H418.129C417.953 429.773 416.207 432.316 413.641 432.305C410.934 432.316 409.176 429.492 409.164 425.062ZM410.898 425.062C410.875 428.438 411.953 430.57 413.641 430.547C415.34 430.57 416.418 428.438 416.406 425.062C416.418 421.676 415.34 419.555 413.641 419.555C411.953 419.555 410.875 421.676 410.898 425.062ZM447.484 416.062V436.898H445.727V416.062H447.484ZM429.672 431.062C434.195 428.379 436.469 424.617 436.82 420.258H430.562V418.734H438.648C438.648 420.785 438.32 422.766 437.605 424.617H441.344V416.625H443.102V435.844H441.344V426.117H436.926C435.672 428.543 433.656 430.688 430.75 432.398L429.672 431.062ZM462.016 417.68C464.852 417.691 466.902 420.129 467.184 424.031H471.859V416.062H473.688V436.945H471.859V425.555H467.207C467.008 429.645 464.922 432.199 462.016 432.188C458.934 432.199 456.777 429.387 456.789 424.945C456.777 420.516 458.934 417.691 462.016 417.68ZM458.547 424.945C458.559 428.332 459.965 430.559 462.016 430.547C464.055 430.559 465.484 428.332 465.484 424.945C465.484 421.559 464.055 419.332 462.016 419.32C459.965 419.332 458.559 421.559 458.547 424.945ZM486.648 416.32C491.277 416.32 493.996 417.609 494.008 419.93C493.996 422.273 491.277 423.551 486.648 423.562C481.996 423.551 479.266 422.273 479.266 419.93C479.266 417.609 481.996 416.32 486.648 416.32ZM477.156 426.422V424.945H496.141V426.422H487.539V428.391H493.703V433.055H481.328V435.211H494.336V436.664H479.5V431.695H491.898V429.797H479.453V428.391H485.711V426.422H477.156ZM481.188 419.93C481.164 421.359 483.191 422.133 486.648 422.156C490.105 422.133 492.121 421.359 492.133 419.93C492.121 418.559 490.105 417.75 486.648 417.727C483.191 417.75 481.164 418.559 481.188 419.93ZM515.102 416.062V436.945H513.273V416.062H515.102ZM499.07 419.531V418.008H508.773V425.414H500.992V430.336C504.449 430.348 507.531 430.184 511.258 429.586L511.445 431.133C507.613 431.73 504.449 431.883 500.852 431.883H499.117V423.914H506.922V419.531H499.07ZM535.492 422.391V423.867H521.219V416.836H523.047V422.391H535.492ZM518.617 428.203V426.703H537.695V428.203H518.617ZM521.102 436.383V430.336H522.93V434.859H535.609V436.383H521.102ZM555.742 418.148V423.703H560.852V416.062H562.68V436.945H560.852V425.227H555.742V431.625H546.25V418.148H555.742ZM548.078 430.148H553.961V419.602H548.078V430.148ZM583.352 416.062V436.945H581.523V416.062H583.352ZM567.32 419.531V418.008H577.023V425.414H569.242V430.336C572.699 430.348 575.781 430.184 579.508 429.586L579.695 431.133C575.863 431.73 572.699 431.883 569.102 431.883H567.367V423.914H575.172V419.531H567.32ZM603.297 419.133C603.309 422.707 607.387 425.883 611.008 426.562L610.164 428.109C607.012 427.383 603.707 425.145 602.359 422.086C601 425.145 597.707 427.371 594.555 428.109L593.711 426.562C597.32 425.871 601.363 422.719 601.375 419.133V417.539H603.297V419.133ZM592.914 434.062V432.539H611.992V434.062H592.914ZM624.344 417.961V419.508H616.422V423.82H623.875V425.32H616.422V430.359C620.184 430.359 622.82 430.219 625.938 429.68L626.148 431.203C622.891 431.754 620.16 431.871 616.211 431.883H614.57V417.961H624.344ZM627.953 436.898V416.062H629.781V424.453H633.273V426.023H629.781V436.898H627.953ZM640.305 416.836C643.422 416.848 645.684 418.746 645.695 421.453C645.684 424.172 643.422 426.047 640.305 426.047C637.152 426.047 634.879 424.172 634.891 421.453C634.879 418.746 637.152 416.848 640.305 416.836ZM636.695 421.453C636.672 423.281 638.207 424.547 640.305 424.547C642.367 424.547 643.914 423.281 643.914 421.453C643.914 419.648 642.367 418.371 640.305 418.383C638.207 418.371 636.672 419.648 636.695 421.453ZM638.055 429.258V427.781H651.602V432.797H639.906V435.141H652.352V436.617H638.102V431.414H649.773V429.258H638.055ZM649.773 426.773V416.062H651.602V426.773H649.773ZM664.633 416.438C669.262 416.438 671.98 417.715 671.992 420.023C671.98 422.391 669.262 423.668 664.633 423.68C659.98 423.668 657.25 422.391 657.25 420.023C657.25 417.715 659.98 416.438 664.633 416.438ZM655.141 426.586V425.086H674.125V426.586H655.141ZM657.438 429.797V428.391H671.688V433.055H659.312V435.211H672.32V436.664H657.484V431.695H669.883V429.797H657.438ZM659.172 420.023C659.148 421.477 661.176 422.273 664.633 422.273C668.09 422.273 670.105 421.477 670.117 420.023C670.105 418.652 668.09 417.832 664.633 417.82C661.176 417.832 659.148 418.652 659.172 420.023ZM698.195 416.062V421.406H701.336V422.977H698.195V428.18H696.367V416.062H698.195ZM681.953 419.742V418.219H687.25V415.875H689.078V418.219H694.375V419.742H681.953ZM683.148 424.359C683.137 422.133 685.141 420.715 688.164 420.703C691.152 420.715 693.156 422.133 693.18 424.359C693.156 426.586 691.152 428.027 688.164 428.016C685.141 428.027 683.137 426.586 683.148 424.359ZM684.906 424.359C684.895 425.719 686.195 426.609 688.164 426.609C690.109 426.609 691.422 425.719 691.445 424.359C691.422 423.012 690.109 422.109 688.164 422.133C686.195 422.109 684.895 423.012 684.906 424.359ZM685.023 436.617V429.094H686.852V431.32H696.367V429.094H698.195V436.617H685.023ZM686.852 435.141H696.367V432.773H686.852V435.141ZM709.82 419.344C709.797 422.32 711.918 424.934 714.977 425.977L713.945 427.406C711.648 426.551 709.844 424.852 708.941 422.66C708.051 425.156 706.152 427.09 703.633 428.039L702.625 426.539C705.836 425.414 707.969 422.648 707.992 419.414V417.258H709.82V419.344ZM706.023 432.961C706.012 430.453 708.672 429.012 713.008 429.023C717.332 429.012 719.992 430.453 719.992 432.961C719.992 435.445 717.332 436.852 713.008 436.852C708.672 436.852 706.012 435.445 706.023 432.961ZM707.852 432.961C707.84 434.473 709.809 435.387 713.008 435.375C716.195 435.387 718.164 434.473 718.164 432.961C718.164 431.402 716.195 430.477 713.008 430.477C709.809 430.477 707.84 431.402 707.852 432.961ZM713.43 422.062V420.539H718.07V416.062H719.922V428.414H718.07V422.062H713.43ZM733.797 419.672V421.172H723.344V419.672H727.68V416.695H729.508V419.672H733.797ZM724.094 427.312C724.094 424.547 725.98 422.59 728.57 422.578C731.195 422.59 733.07 424.547 733.094 427.312C733.07 430.113 731.195 432.082 728.57 432.094C725.98 432.082 724.094 430.113 724.094 427.312ZM725.734 427.312C725.734 429.164 726.918 430.488 728.57 430.477C730.234 430.488 731.453 429.164 731.453 427.312C731.453 425.484 730.234 424.148 728.57 424.125C726.918 424.148 725.734 425.484 725.734 427.312ZM734.875 435.867V416.578H736.609V424.852H739.375V416.062H741.133V436.898H739.375V426.375H736.609V435.867H734.875ZM763.211 432.703V434.227H744.133V432.703H752.711V428.203H746.383V417.539H748.234V421.312H759.062V417.539H760.867V428.203H754.516V432.703H763.211ZM748.234 426.703H759.062V422.812H748.234V426.703ZM771.062 421.992C771.062 425.309 772.68 428.883 775.445 430.523L774.391 431.953C772.375 430.734 770.934 428.508 770.207 425.965C769.445 428.742 767.898 431.133 765.812 432.398L764.641 431.016C767.523 429.328 769.281 425.637 769.281 422.062V418.031H771.062V421.992ZM773.148 425.109V423.539H776.688V416.508H778.422V435.844H776.688V425.109H773.148ZM780.953 436.898V416.062H782.734V436.898H780.953ZM804.695 432.68V434.227H785.617V432.68H790.352V427.066C788.57 426.141 787.492 424.641 787.492 422.742C787.492 419.52 790.656 417.398 795.109 417.375C799.562 417.398 802.727 419.52 802.727 422.742C802.727 424.605 801.684 426.082 799.961 427.008V432.68H804.695ZM789.273 422.742C789.262 425.074 791.688 426.633 795.109 426.633C798.496 426.633 800.945 425.074 800.945 422.742C800.945 420.41 798.496 418.875 795.109 418.898C791.688 418.875 789.262 420.41 789.273 422.742ZM792.156 432.68H798.109V427.723C797.207 427.957 796.199 428.086 795.109 428.086C794.043 428.086 793.047 427.969 792.156 427.734V432.68ZM809.734 418.031L809.57 430.219H807.602L807.438 418.031H809.734ZM807.086 433.617C807.062 432.797 807.766 432.117 808.586 432.117C809.418 432.117 810.098 432.797 810.086 433.617C810.098 434.449 809.418 435.129 808.586 435.141C807.766 435.129 807.062 434.449 807.086 433.617Z" fill="white"/>
</g>
<defs>
<filter id="filter0_d_100_10" x="4.9187" y="6.31812" width="4.13062" height="5.11377" filterUnits="userSpaceOnUse" color-interpolation-filters="sRGB">
<feFlood flood-opacity="0" result="BackgroundImageFix"/>
<feColorMatrix in="SourceAlpha" type="matrix" values="0 0 0 0 0 0 0 0 0 0 0 0 0 0 0 0 0 0 127 0" result="hardAlpha"/>
<feOffset dy="0.5"/>
<feGaussianBlur stdDeviation="0.25"/>
<feComposite in2="hardAlpha" operator="out"/>
<feColorMatrix type="matrix" values="0 0 0 0 0 0 0 0 0 0 0 0 0 0 0 0 0 0 0.25 0"/>
<feBlend mode="normal" in2="BackgroundImageFix" result="effect1_dropShadow_100_10"/>
<feBlend mode="normal" in="SourceGraphic" in2="effect1_dropShadow_100_10" result="shape"/>
</filter>
<clipPath id="clip0_100_10">
<rect width="1200" height="628" fill="white"/>
</clipPath>
</defs>
</svg>
