<svg width="93" height="59" viewBox="0 0 93 59" fill="none" xmlns="http://www.w3.org/2000/svg">
<path d="M17.6398 23.9725L8.2419 26.192C7.96197 25.9947 7.70664 25.7689 7.47592 25.5146C6.44721 24.3554 5.93285 22.7048 5.93285 20.5629V19.0509H9.84699V20.8653C9.84699 22.5788 10.5621 23.4356 11.9922 23.4356C12.6948 23.4356 13.2217 23.234 13.573 22.8308C13.9493 22.4024 14.1375 21.7221 14.1375 20.7897C14.1375 19.6809 13.8866 18.7107 13.3848 17.8791C12.883 17.0223 11.9546 16.0017 10.5997 14.8174C8.89355 13.3054 7.70174 11.9446 7.02429 10.735C6.34685 9.50025 6.00812 8.11427 6.00812 6.5771C6.00812 4.48553 6.53503 2.87276 7.58883 1.73877C8.64264 0.579591 10.1732 0 12.1804 0C14.1626 0 15.6555 0.579591 16.6591 1.73877C17.6878 2.87276 18.2022 4.51073 18.2022 6.6527V7.74888H14.288V6.3881C14.288 5.48091 14.1124 4.82572 13.7611 4.42253C13.4099 3.99414 12.8955 3.77994 12.2181 3.77994C10.8381 3.77994 10.1481 4.62413 10.1481 6.3125C10.1481 7.27009 10.399 8.16467 10.9008 8.99626C11.4277 9.82785 12.3686 10.8358 13.7235 12.0202C15.4548 13.5322 16.6466 14.9056 17.2989 16.1403C17.9513 17.3751 18.2775 18.8241 18.2775 20.4873C18.2775 21.8476 18.0649 23.0093 17.6398 23.9725Z" fill="white"/>
<path d="M20.6512 25.435V26.8376H31.942V23.0576H30.7176L20.6512 25.435Z" fill="white"/>
<path d="M24.7911 22.2836L20.6512 23.2613V0.377994H31.942V4.15794H24.7911V11.1508H30.4742V14.9308H24.7911V22.2836Z" fill="white"/>
<path d="M34.3236 22.206V26.8376H45.2757V23.0576H38.4636V21.2283L34.3236 22.206Z" fill="white"/>
<path d="M38.4636 19.0546L34.3236 20.0323V0.377994H38.4636V19.0546Z" fill="white"/>
<path d="M47.261 19.1506V26.8376H58.5518V23.0576H51.4009V18.1728L47.261 19.1506Z" fill="white"/>
<path d="M51.4009 15.9991L47.261 16.9769V0.377994H58.5518V4.15794H51.4009V11.1508H57.084V14.657L55.9247 14.9308H51.4009V15.9991Z" fill="white"/>
<path d="M60.67 15.9838V20.7141C60.67 22.7804 61.1843 24.3806 62.2131 25.5146C63.2669 26.6486 64.7849 27.2156 66.767 27.2156C68.7492 27.2156 70.2546 26.6486 71.2833 25.5146C72.3371 24.3806 72.864 22.7804 72.864 20.7141V16.9719H68.9499V21.0165C68.9499 22.6292 68.2599 23.4356 66.8799 23.4356C65.4999 23.4356 64.8099 22.6292 64.8099 21.0165V15.006L60.67 15.9838Z" fill="white"/>
<path d="M64.8099 12.8323L60.67 13.8101V6.5015C60.67 4.43513 61.1843 2.83496 62.2131 1.70097C63.2669 0.566991 64.7849 0 66.767 0C68.7492 0 70.2546 0.566991 71.2833 1.70097C72.3371 2.83496 72.864 4.43513 72.864 6.5015V9.29865H68.9499V6.2369C68.9499 4.59893 68.2599 3.77994 66.8799 3.77994C65.4999 3.77994 64.8099 4.59893 64.8099 6.2369V12.8323Z" fill="white"/>
<path d="M78.5777 11.7545V26.8376H82.7176V10.7768L78.5777 11.7545Z" fill="white"/>
<path d="M82.7176 8.60309L78.5777 9.58082V4.15794H74.2495V0.377994H87.0458V4.15794H82.7176V8.60309Z" fill="white"/>
<path d="M0.638672 32.5404H6.54752L9.18204 51.4779H9.25731L11.8918 32.5404H17.8007V59H13.8865V38.9663H13.8113L10.8004 59H7.33788L4.327 38.9663H4.25173V59H0.638672V32.5404Z" fill="white"/>
<path d="M19.6857 32.5404L24.6913 47.7358V59H28.8313V47.7358L33.8368 32.5404H29.8098L26.9871 42.2549H26.9118L24.0891 32.5404H19.6857Z" fill="white"/>
<path d="M41.7295 32.5404H45.8695V43.3132H50.3105V32.5404H54.4505V59H50.3105V47.0932H45.8695V59H41.7295V32.5404Z" fill="white"/>
<path fill-rule="evenodd" clip-rule="evenodd" d="M66.3405 32.5404H60.7328L56.4423 59H60.2811L61.0338 53.8215H65.7383V53.7459L66.4911 59H70.631L66.3405 32.5404ZM63.4049 37.1519L65.2491 50.2305H61.5231L63.3296 37.1519H63.4049Z" fill="white"/>
<path d="M72.6395 32.5404H76.7795V59H72.6395V32.5404Z" fill="white"/>
<path fill-rule="evenodd" clip-rule="evenodd" d="M86.0147 32.5404H79.8801V59H84.02V47.6602H85.4502C86.4036 47.6602 87.0685 47.8996 87.4449 48.3784C87.8463 48.8572 88.0471 49.7013 88.0471 50.9109V55.7492C88.0471 56.732 88.0722 57.4124 88.1224 57.7904C88.1725 58.1684 88.2729 58.5716 88.4234 59H92.6387C92.4379 58.5464 92.3125 58.0928 92.2623 57.6392C92.2121 57.1604 92.187 56.543 92.187 55.787V51.1377C92.187 49.5753 91.9738 48.328 91.5472 47.3956C91.1458 46.4632 90.4432 45.8458 89.4396 45.5434V45.4678C91.2461 44.737 92.1494 42.9982 92.1494 40.2515V38.6261C92.1494 36.5597 91.6601 35.0352 90.6816 34.0524C89.7031 33.0444 88.1474 32.5404 86.0147 32.5404ZM87.3696 43.2376C86.9682 43.666 86.3535 43.8802 85.5255 43.8802H84.02V36.3204H85.9018C86.6295 36.3204 87.1564 36.5345 87.4825 36.9629C87.8338 37.3913 88.0095 38.0843 88.0095 39.0419V41.0831C88.0095 42.0911 87.7962 42.8093 87.3696 43.2376Z" fill="white"/>
</svg>
